#N canvas 541 23 1150 1315 12;
#X obj 573 40 table array1;
#X obj 598 170 table array2;
#X obj 590 281 table array3;
#X obj 168 23 cyclone/mousestate;
#X floatatom 243 68 5 0 0 0 - - - 0;
#X floatatom 193 67 5 0 0 0 - - - 0;
#X obj 49 7 tgl 15 0 empty empty empty 17 7 0 10 #fcfcfc #000000 #000000
0 1;
#X obj 47 49 metro 100;
#X msg 84 215 1;
#X obj 244 710 *~ 0.25;
#X obj 251 789 dac~;
#X msg 576 81 \; array1 0 60 63 70 53;
#X msg 606 211 \; array2 0 60 64 65 72;
#X msg 598 322 \; array3 0 60 63 67 75;
#X text 934 313 About;
#X text 1039 320 Members;
#X text 926 442 Listen;
#X text 1001 445 Something Else;
#X text 905 370 regular/irregular \, dense/sparse local \, dense/sparse
global;
#X obj 450 27 loadbang;
#X text 931 399 tonal centers? timbre?;
#X obj 80 650 rhythm-unit array1 5;
#X obj 235 651 rhythm-unit array2 8;
#X obj 423 650 rhythm-unit array3 2;
#X obj 197 303 vradio 15 1 0 10 empty empty empty 0 -8 0 10 #fcfcfc
#000000 #000000 0;
#X obj 218 303 vradio 15 1 0 10 empty empty empty 0 -8 0 10 #fcfcfc
#000000 #000000 0;
#X obj 262 304 vradio 15 1 0 10 empty empty empty 0 -8 0 10 #fcfcfc
#000000 #000000 0;
#X obj 283 304 vradio 15 1 0 10 empty empty empty 0 -8 0 10 #fcfcfc
#000000 #000000 0;
#X obj 323 302 vradio 15 1 0 10 empty empty empty 0 -8 0 10 #fcfcfc
#000000 #000000 0;
#X obj 344 302 vradio 15 1 0 10 empty empty empty 0 -8 0 10 #fcfcfc
#000000 #000000 0;
#X text 562 442 figure out a way so these can rotate between all combinations
;
#X obj 460 330 tgl 60 0 empty empty rotate\\\ combinations 17 7 0 10
#fcfcfc #000000 #000000 0 1;
#N canvas 1631 590 997 300 combinations 1;
#X obj 57 21 inlet;
#X obj 102 21 inlet;
#X obj 156 22 inlet;
#X obj 201 22 inlet;
#X obj 251 22 inlet;
#X obj 296 22 inlet;
#X obj 679 16 inlet;
#X obj 86 251 outlet;
#X obj 139 253 outlet;
#X obj 223 252 outlet;
#X obj 276 254 outlet;
#X obj 348 251 outlet;
#X obj 401 253 outlet;
#X obj 101 136 pack f f f f f f;
#X obj 101 179 list;
#X obj 236 135 pack f f f f f f;
#X obj 236 178 list;
#X obj 377 134 pack f f f f f f;
#X obj 377 177 list;
#X obj 512 136 pack f f f f f f;
#X obj 512 179 list;
#X obj 640 137 pack f f f f f f;
#X obj 640 180 list;
#X obj 773 136 pack f f f f f f;
#X obj 773 179 list;
#X obj 159 208 unpack f f f f f f;
#X text 441 37 123 132 231 213 312 321;
#X obj 845 30 + 1;
#X obj 791 30 f 0;
#X obj 789 57 % 6;
#X obj 790 84 sel 0 1 2 3 4 5;
#X obj 679 39 t b b;
#X connect 0 0 13 0;
#X connect 0 0 15 0;
#X connect 0 0 17 4;
#X connect 0 0 19 2;
#X connect 0 0 21 2;
#X connect 0 0 23 4;
#X connect 1 0 13 1;
#X connect 1 0 15 1;
#X connect 1 0 17 5;
#X connect 1 0 19 3;
#X connect 1 0 21 3;
#X connect 1 0 23 5;
#X connect 2 0 13 2;
#X connect 2 0 15 4;
#X connect 2 0 19 0;
#X connect 2 0 17 0;
#X connect 2 0 21 4;
#X connect 2 0 23 2;
#X connect 3 0 13 3;
#X connect 3 0 15 5;
#X connect 3 0 17 1;
#X connect 3 0 19 1;
#X connect 3 0 21 5;
#X connect 3 0 23 3;
#X connect 4 0 13 4;
#X connect 4 0 15 2;
#X connect 4 0 17 2;
#X connect 4 0 19 4;
#X connect 4 0 21 0;
#X connect 4 0 23 0;
#X connect 5 0 13 5;
#X connect 5 0 15 3;
#X connect 5 0 17 3;
#X connect 5 0 19 5;
#X connect 5 0 21 1;
#X connect 5 0 23 1;
#X connect 6 0 31 0;
#X connect 13 0 14 1;
#X connect 14 0 25 0;
#X connect 15 0 16 1;
#X connect 16 0 25 0;
#X connect 17 0 18 1;
#X connect 18 0 25 0;
#X connect 19 0 20 1;
#X connect 20 0 25 0;
#X connect 21 0 22 1;
#X connect 22 0 25 0;
#X connect 23 0 24 1;
#X connect 24 0 25 0;
#X connect 25 0 7 0;
#X connect 25 1 8 0;
#X connect 25 2 9 0;
#X connect 25 3 10 0;
#X connect 25 4 11 0;
#X connect 25 5 12 0;
#X connect 27 0 28 1;
#X connect 28 0 27 0;
#X connect 28 0 29 0;
#X connect 29 0 30 0;
#X connect 30 0 14 0;
#X connect 30 1 16 0;
#X connect 30 2 18 0;
#X connect 30 3 20 0;
#X connect 30 4 22 0;
#X connect 30 5 24 0;
#X connect 31 0 28 0;
#X connect 31 1 13 0;
#X connect 31 1 15 0;
#X connect 31 1 17 0;
#X connect 31 1 19 0;
#X connect 31 1 21 0;
#X connect 31 1 23 0;
#X restore 219 532 pd combinations;
#X obj 396 440 bng 15 250 50 0 empty empty empty 17 7 0 10 #fcfcfc
#000000 #000000;
#X obj 518 595 pack f f f f f f;
#X obj 577 654 print;
#X connect 3 1 5 0;
#X connect 3 2 4 0;
#X connect 6 0 7 0;
#X connect 7 0 3 0;
#X connect 7 0 21 0;
#X connect 7 0 22 0;
#X connect 7 0 23 0;
#X connect 8 0 21 1;
#X connect 9 0 10 0;
#X connect 9 0 10 1;
#X connect 19 0 11 0;
#X connect 19 0 12 0;
#X connect 19 0 13 0;
#X connect 21 0 9 0;
#X connect 21 1 22 1;
#X connect 22 0 9 0;
#X connect 22 1 23 1;
#X connect 23 0 9 0;
#X connect 23 1 21 1;
#X connect 24 0 32 0;
#X connect 25 0 32 1;
#X connect 26 0 32 2;
#X connect 27 0 32 3;
#X connect 28 0 32 4;
#X connect 29 0 32 5;
#X connect 32 0 21 2;
#X connect 32 0 34 0;
#X connect 32 1 21 3;
#X connect 32 1 34 1;
#X connect 32 2 22 2;
#X connect 32 2 34 2;
#X connect 32 3 22 3;
#X connect 32 3 34 3;
#X connect 32 4 23 2;
#X connect 32 4 34 4;
#X connect 32 5 23 3;
#X connect 32 5 34 5;
#X connect 33 0 32 6;
#X connect 34 0 35 0;
