#N canvas 180 166 1820 1418 12;
#X obj 573 40 table array1;
#X obj 598 170 table array2;
#X obj 590 281 table array3;
#X obj 168 23 cyclone/mousestate;
#X floatatom 243 68 5 0 0 0 - - -;
#X floatatom 193 67 5 0 0 0 - - -;
#X obj 49 7 tgl 15 0 empty empty empty 17 7 0 10 -262144 -1 -1 0 1
;
#X obj 47 49 metro 100;
#X obj 35 303 rhythm-unit array1;
#X obj 178 305 rhythm-unit array2;
#X obj 318 304 rhythm-unit array3;
#X msg 84 215 1;
#X obj 187 364 *~ 0.25;
#X obj 194 443 dac~;
#X msg 576 81 \; array1 0 60 63 70 53;
#X msg 606 211 \; array2 0 60 64 65 72;
#X msg 598 322 \; array3 0 60 63 67 75;
#X text 362 468 About;
#X text 467 475 Members;
#X text 354 597 Listen;
#X text 429 600 Something Else;
#X text 333 525 regular/irregular \, dense/sparse local \, dense/sparse
global;
#X obj 450 27 loadbang;
#X obj 83 169 loadbang;
#X text 359 554 tonal centers? timbre?;
#X connect 3 1 5 0;
#X connect 3 2 4 0;
#X connect 6 0 7 0;
#X connect 7 0 3 0;
#X connect 7 0 10 0;
#X connect 7 0 8 0;
#X connect 7 0 9 0;
#X connect 8 0 12 0;
#X connect 8 1 9 1;
#X connect 9 0 12 0;
#X connect 9 1 10 1;
#X connect 10 0 12 0;
#X connect 10 1 8 1;
#X connect 11 0 8 1;
#X connect 12 0 13 0;
#X connect 12 0 13 1;
#X connect 22 0 14 0;
#X connect 22 0 15 0;
#X connect 22 0 16 0;
#X connect 23 0 11 0;
