#N canvas 541 54 1820 1315 12;
#X obj 573 40 table array1;
#X obj 598 170 table array2;
#X obj 590 281 table array3;
#X obj 168 23 cyclone/mousestate;
#X floatatom 243 68 5 0 0 0 - - - 0;
#X floatatom 193 67 5 0 0 0 - - - 0;
#X obj 49 7 tgl 15 0 empty empty empty 17 7 0 10 #fcfcfc #000000 #000000
0 1;
#X obj 47 49 metro 100;
#X msg 84 215 1;
#X obj 244 710 *~ 0.25;
#X obj 251 789 dac~;
#X msg 576 81 \; array1 0 60 63 70 53;
#X msg 606 211 \; array2 0 60 64 65 72;
#X msg 598 322 \; array3 0 60 63 67 75;
#X text 934 313 About;
#X text 1039 320 Members;
#X text 926 442 Listen;
#X text 1001 445 Something Else;
#X text 905 370 regular/irregular \, dense/sparse local \, dense/sparse
global;
#X obj 450 27 loadbang;
#X obj 83 169 loadbang;
#X text 931 399 tonal centers? timbre?;
#X obj 80 650 rhythm-unit array1 5;
#X obj 235 651 rhythm-unit array2 8;
#X obj 423 650 rhythm-unit array3 2;
#X obj 283 277 vradio 15 1 0 10 empty empty empty 0 -8 0 10 #fcfcfc
#000000 #000000 0;
#X obj 304 277 vradio 15 1 0 10 empty empty empty 0 -8 0 10 #fcfcfc
#000000 #000000 0;
#X obj 348 278 vradio 15 1 0 10 empty empty empty 0 -8 0 10 #fcfcfc
#000000 #000000 0;
#X obj 369 278 vradio 15 1 0 10 empty empty empty 0 -8 0 10 #fcfcfc
#000000 #000000 0;
#X obj 409 276 vradio 15 1 0 10 empty empty empty 0 -8 0 10 #fcfcfc
#000000 #000000 0;
#X obj 430 276 vradio 15 1 0 10 empty empty empty 0 -8 0 10 #fcfcfc
#000000 #000000 0;
#X text 562 442 figure out a way so these can rotate between all combinations
;
#X obj 460 330 tgl 60 0 empty empty rotate\ combinations 17 7 0 10
#fcfcfc #000000 #000000 0 1;
#N canvas 135 320 997 300 combinations 1;
#X obj 105 73 inlet;
#X obj 150 73 inlet;
#X obj 204 74 inlet;
#X obj 249 74 inlet;
#X obj 299 74 inlet;
#X obj 344 74 inlet;
#X obj 473 73 inlet;
#X obj 86 251 outlet;
#X obj 139 253 outlet;
#X obj 223 252 outlet;
#X obj 276 254 outlet;
#X obj 348 251 outlet;
#X obj 401 253 outlet;
#X obj 96 115 pack f f;
#X obj 206 114 pack f f;
#X obj 307 119 pack f f;
#X connect 0 0 13 0;
#X connect 1 0 13 1;
#X connect 2 0 14 0;
#X connect 3 0 14 1;
#X connect 4 0 15 0;
#X connect 5 0 15 1;
#X restore 468 870 pd combinations;
#X connect 3 1 5 0;
#X connect 3 2 4 0;
#X connect 6 0 7 0;
#X connect 7 0 3 0;
#X connect 7 0 22 0;
#X connect 7 0 23 0;
#X connect 7 0 24 0;
#X connect 8 0 22 1;
#X connect 9 0 10 0;
#X connect 9 0 10 1;
#X connect 19 0 11 0;
#X connect 19 0 12 0;
#X connect 19 0 13 0;
#X connect 20 0 8 0;
#X connect 20 0 6 0;
#X connect 22 0 9 0;
#X connect 22 1 23 1;
#X connect 23 0 9 0;
#X connect 23 1 24 1;
#X connect 24 0 9 0;
#X connect 24 1 22 1;
#X connect 25 0 22 2;
#X connect 26 0 22 3;
#X connect 27 0 23 2;
#X connect 28 0 23 3;
#X connect 29 0 24 2;
#X connect 30 0 24 3;
