#N canvas 469 23 2091 1315 12;
#X obj 30 95 inlet;
#X text 36 49 in from metro;
#X obj 222 98 inlet;
#X text 157 48 in from start button;
#X obj 133 606 f 0;
#X obj 174 606 + 1;
#X obj 152 331 tgl 15 0 empty empty empty 17 7 0 10 #fcfcfc #000000
#000000 0 1;
#X obj 116 361 spigot;
#X obj 117 306 t b b;
#X obj 188 254 f 0;
#X obj 249 256 + 1;
#X obj 130 658 tabread \$1;
#X msg 259 167 0;
#X obj 134 851 outlet~;
#X text 414 338 turn off this module;
#X text 603 342 turn on the next module;
#X obj 616 419 sel 1;
#X obj 613 487 outlet;
#X obj 117 238 t b b;
#X obj 464 400 sel 1;
#X obj 138 784 rtcmix~ 2 perc.sco;
#X obj 131 689 t b f;
#X msg 128 742 var 1 \$1 2 \$2;
#X obj 279 720 pack f f;
#X obj 262 668 \$2;
#X obj 247 645 loadbang;
#X obj 137 507 spigot;
#X msg 166 468 1;
#X msg 218 477 0;
#X obj 203 516 tgl 15 0 empty empty empty 17 7 0 10 #fcfcfc #000000
#000000 0 1;
#X obj 459 368 == 5;
#X obj 619 368 == 4;
#X obj 465 155 inlet;
#X obj 608 156 inlet;
#X obj 467 220 f 5;
#X obj 615 227 f 4;
#X connect 0 0 18 0;
#X connect 2 0 12 0;
#X connect 2 0 27 0;
#X connect 2 0 34 0;
#X connect 2 0 35 0;
#X connect 4 0 5 0;
#X connect 4 0 11 0;
#X connect 5 0 4 1;
#X connect 6 0 7 1;
#X connect 7 0 26 0;
#X connect 8 0 7 0;
#X connect 8 1 6 0;
#X connect 9 0 10 0;
#X connect 9 0 30 0;
#X connect 9 0 31 0;
#X connect 10 0 9 1;
#X connect 11 0 21 0;
#X connect 12 0 9 1;
#X connect 12 0 4 1;
#X connect 16 0 17 0;
#X connect 18 0 8 0;
#X connect 18 1 9 0;
#X connect 19 0 28 0;
#X connect 20 0 13 0;
#X connect 20 1 13 0;
#X connect 21 0 20 0;
#X connect 21 1 23 0;
#X connect 22 0 20 0;
#X connect 23 0 22 0;
#X connect 24 0 23 1;
#X connect 25 0 24 0;
#X connect 26 0 4 0;
#X connect 27 0 29 0;
#X connect 27 0 6 0;
#X connect 28 0 29 0;
#X connect 29 0 26 1;
#X connect 30 0 19 0;
#X connect 31 0 16 0;
#X connect 32 0 34 1;
#X connect 33 0 35 1;
#X connect 34 0 30 1;
#X connect 35 0 31 1;
