#N canvas 1103 140 2091 1418 12;
#X obj 30 95 inlet;
#X text 36 49 in from metro;
#X obj 222 98 inlet;
#X text 157 48 in from start button;
#X obj 173 162 tgl 15 0 empty empty empty 17 7 0 10 -262144 -1 -1 1
1;
#N canvas 1721 611 901 789 make-note 0;
#X obj 45 29 inlet;
#X obj 167 163 *~;
#X obj 226 156 vline~;
#X msg 162 88 0 0 \, 1 50 0 \, 0 500 100;
#X obj 46 63 t b f;
#X obj 51 101 mtof;
#X obj 91 123 phasor~;
#X obj 62 269 outlet~;
#X connect 0 0 4 0;
#X connect 1 0 7 0;
#X connect 2 0 1 1;
#X connect 3 0 2 0;
#X connect 4 0 3 0;
#X connect 4 1 5 0;
#X connect 5 0 6 0;
#X connect 6 0 1 0;
#X restore 128 564 pd make-note;
#X obj 116 394 f 0;
#X obj 157 394 + 1;
#X obj 152 331 tgl 15 0 empty empty empty 17 7 0 10 -262144 -1 -1 0
1;
#X obj 116 361 spigot;
#X obj 117 306 t b b;
#X obj 188 254 f 0;
#X obj 249 256 + 1;
#X obj 126 533 tabread \$1;
#X obj 111 171 spigot;
#X msg 259 167 0;
#X obj 131 653 outlet~;
#X text 238 336 turn off this module;
#X text 427 340 turn on the next module;
#X obj 440 417 sel 1;
#X obj 437 485 outlet;
#X msg 155 126 1;
#X msg 201 145 0;
#X obj 117 238 t b b;
#X obj 288 398 sel 1;
#X obj 282 365 == 4;
#X obj 443 366 == 1;
#X connect 0 0 14 0;
#X connect 2 0 15 0;
#X connect 2 0 21 0;
#X connect 4 0 14 1;
#X connect 5 0 16 0;
#X connect 6 0 7 0;
#X connect 6 0 13 0;
#X connect 7 0 6 1;
#X connect 8 0 9 1;
#X connect 9 0 6 0;
#X connect 10 0 9 0;
#X connect 10 1 8 0;
#X connect 11 0 12 0;
#X connect 11 0 25 0;
#X connect 11 0 26 0;
#X connect 12 0 11 1;
#X connect 13 0 5 0;
#X connect 14 0 23 0;
#X connect 15 0 11 1;
#X connect 15 0 6 1;
#X connect 19 0 20 0;
#X connect 21 0 4 0;
#X connect 22 0 4 0;
#X connect 23 0 10 0;
#X connect 23 1 11 0;
#X connect 24 0 22 0;
#X connect 25 0 24 0;
#X connect 26 0 19 0;
